<svg width="100%" height="100%" version="1.1" xmlns="http://www.w3.org/2000/svg" xmlns:xlink="http://www.w3.org/1999/xlink" xml:space="preserve" xmlns:serif="http://www.serif.com/" style="fill-rule:evenodd;clip-rule:evenodd;stroke-linejoin:round;stroke-miterlimit:2;">
    <g transform="matrix(5.69595,0,0,5.69595,-630.385,-3748.89)">
        <path d="M199.685,843.033C195.313,846.783 189.938,848.658 183.56,848.658C173.061,848.658 164.461,843.583 157.76,833.433C150.772,823.233 147.279,809.283 147.279,791.583C147.279,773.683 150.808,759.333 157.867,748.533C164.927,737.733 174.261,732.333 185.871,732.333C195.94,732.333 204.03,735.896 210.139,743.021C216.249,750.146 219.752,759.033 220.647,769.683L204.361,769.683C203.107,762.133 200.043,756.858 195.17,753.858C192.447,752.208 189.419,751.383 186.086,751.383C179.708,751.383 174.467,754.746 170.364,761.471C166.261,768.196 164.21,778.308 164.21,791.808C164.21,805.408 166.432,815.033 170.875,820.683C175.318,826.333 180.371,829.158 186.032,829.158C191.587,829.158 196.137,826.921 199.685,822.446C203.232,817.971 205.418,812.108 206.242,804.858L187.914,804.858L187.914,786.408L220.916,786.408L220.916,845.733L209.951,845.733L208.285,831.933C205.096,837.183 202.229,840.883 199.685,843.033Z" style="fill-rule:nonzero;"/>
        <path d="M277.381,823.008L248.194,823.008L242.712,845.733L225.404,845.733L253.677,735.183L272.382,735.183L300.439,845.733L282.487,845.733L277.381,823.008ZM272.758,803.958L262.868,760.458L252.656,803.958L272.758,803.958Z" style="fill-rule:nonzero;"/>
        <path d="M290.792,735.183L308.475,735.183L325.675,819.108L343.037,735.183L360.237,735.183L333.2,845.733L317.559,845.733L290.792,735.183Z" style="fill-rule:nonzero;"/>
    </g>
    <g transform="matrix(3.125,0,0,3.125,-787.889,-817.992)">
        <path d="M773.729,261.757L773.729,744.149L252.125,744.149L252.125,261.757L773.729,261.757ZM736.279,303.028L289.445,303.028L289.445,704.826L736.279,704.826L736.279,303.028Z"/>
    </g>
    <style>
        path { fill: #000; }
        @media (prefers-color-scheme: dark) {
            path { fill: #FFF; }
        }
    </style>
</svg>
